<?xml version="1.0" encoding="iso-8859-1"?>
<!-- Uploaded to: SVG Repo, www.svgrepo.com, Generator: SVG Repo Mixer Tools -->
<svg fill="#000000" version="1.1" id="Layer_1" xmlns="http://www.w3.org/2000/svg" xmlns:xlink="http://www.w3.org/1999/xlink" 
	 viewBox="0 0 496 496" xml:space="preserve">
<g>
	<g>
		<g>
			<path d="M456,88h-98.656C346.32,37.744,301.512,0,248,0c-53.512,0-98.32,37.744-109.344,88H40c-22.056,0-40,17.944-40,40v272
				c0,22.056,17.944,40,40,40h80v40H88v16h320v-16h-32v-40h80c22.056,0,40-17.944,40-40V128C496,105.944,478.056,88,456,88z M248,16
				c52.936,0,96,43.064,96,96c0,52.936-43.064,96-96,96c-52.936,0-96-43.064-96-96C152,59.064,195.064,16,248,16z M360,480H136v-40
				h224V480z M480,400c0,13.232-10.768,24-24,24H40c-13.232,0-24-10.768-24-24v-8h464V400z M480,232.416l-1.928-3.344l-27.72,16
				l8,13.856L480,246.432V376H350.432l12.496-21.648l-13.856-8l-16,27.72l3.344,1.928H16V128c0-13.232,10.768-24,24-24h96.408
				c-0.192,2.656-0.408,5.304-0.408,8c0,61.76,50.24,112,112,112s112-50.24,112-112c0-2.696-0.216-5.344-0.408-8H456
				c13.232,0,24,10.768,24,24V232.416z"/>
			<path d="M236,176h4v16h16v-16h4c19.848,0,36-16.152,36-36c0-19.848-16.152-36-36-36h-24c-11.032,0-20-8.968-20-20s8.968-20,20-20
				h24c11.032,0,20,8.968,20,20v4h16v-4c0-19.848-16.152-36-36-36h-4V32h-16v16h-4c-19.848,0-36,16.152-36,36s16.152,36,36,36h24
				c11.032,0,20,8.968,20,20s-8.968,20-20,20h-24c-11.032,0-20-8.968-20-20v-4h-16v4C200,159.848,216.152,176,236,176z"/>
			<rect x="312" y="104" width="16" height="16"/>
			<rect x="168" y="104" width="16" height="16"/>
			<path d="M88,248H56v104h16v-40h16c17.648,0,32-14.352,32-32S105.648,248,88,248z M88,296H72v-32h16c8.816,0,16,7.176,16,16
				C104,288.824,96.816,296,88,296z"/>
			<path d="M168,248c-17.648,0-32,14.352-32,32v72h16v-40h32v40h16v-72C200,262.352,185.648,248,168,248z M184,296h-32v-16
				c0-8.824,7.176-16,16-16c8.816,0,16,7.176,16,16V296z"/>
			<path d="M264,280c0,8.824-7.184,16-16,16c-8.824,0-16-7.176-16-16v-32h-16v32c0,14.872,10.232,27.288,24,30.864V352h16v-41.136
				c13.76-3.576,24-15.992,24-30.864v-32h-16V280z"/>
			<path d="M344,347.312l24-24l48,48L475.312,312l-48-48l24-24H344V347.312z M360,256h52.688l-8,8l48,48L416,348.688l-48-48l-8,8
				V256z"/>
			<rect x="384" y="184" width="16" height="32"/>
			<rect x="332.001" y="203.798" transform="matrix(0.4999 0.8661 -0.8661 0.4999 357.4739 -195.4778)" width="32" height="16"/>
			<rect x="299.797" y="235.993" transform="matrix(-0.8661 -0.4999 0.4999 -0.8661 467.3343 613.1775)" width="32" height="16"/>
			<rect x="288" y="280" width="32" height="16"/>
			<rect x="307.787" y="316.022" transform="matrix(-0.4999 -0.8661 0.8661 -0.4999 186.087 771.4974)" width="16" height="32"/>
			<rect x="427.99" y="195.769" transform="matrix(0.8661 0.4999 -0.4999 0.8661 164.2456 -189.5891)" width="16" height="32"/>
		</g>
	</g>
</g>
</svg>